# Blender v2.79 (sub 0) OBJ File: ''
# www.blender.org
mtllib hexagon.mtl
o Circle
v 0.000000 0.000000 -1.000000
v -0.866025 0.000000 -0.500000
v -0.866025 0.000000 0.500000
v 0.000000 0.000000 1.000000
v 0.866025 0.000000 0.500000
v 0.866025 0.000000 -0.500000
v 0.000000 0.000000 -0.000000
v 0.000000 -1.000000 -1.000000
v -0.866025 -1.000000 -0.500000
v -0.866025 -1.000000 0.500000
v 0.000000 -1.000000 1.000000
v 0.866025 -1.000000 0.500000
v 0.866025 -1.000000 -0.500000
v 0.000000 -1.000000 0.000000
vt 0.982298 0.573485
vt 0.982298 0.851582
vt 0.741459 0.712534
vt 0.741459 0.434437
vt 0.500620 0.573485
vt 0.500620 0.851582
vt 0.741459 0.990631
vt 0.000103 0.166735
vt 0.000103 0.000103
vt 0.166735 0.000103
vt 0.166735 0.166735
vt 0.666632 0.166735
vt 0.666632 0.000103
vt 0.833265 0.000103
vt 0.833265 0.166735
vt 0.500000 0.166735
vt 0.500000 0.000103
vt 0.333368 0.000103
vt 0.333368 0.166735
vt 0.999897 0.000103
vt 0.999897 0.166735
vt 0.259438 0.990631
vt 0.259438 0.712534
vt 0.500277 0.851582
vt 0.500277 0.573485
vt 0.259438 0.434437
vt 0.018599 0.573485
vt 0.018599 0.851582
vn 0.0000 1.0000 0.0000
vn -0.5000 0.0000 0.8660
vn -0.5000 0.0000 -0.8660
vn 0.5000 0.0000 -0.8660
vn 0.5000 0.0000 0.8660
vn -1.0000 0.0000 0.0000
vn 1.0000 0.0000 0.0000
vn 0.0000 -1.0000 0.0000
usemtl None
s off
f 1/1/1 2/2/1 7/3/1
f 6/4/1 1/1/1 7/3/1
f 5/5/1 6/4/1 7/3/1
f 5/5/1 7/3/1 4/6/1
f 3/7/1 4/6/1 7/3/1
f 2/2/1 3/7/1 7/3/1
f 3/8/2 10/9/2 11/10/2 4/11/2
f 1/12/3 8/13/3 9/14/3 2/15/3
f 6/16/4 13/17/4 8/13/4 1/12/4
f 4/11/5 11/10/5 12/18/5 5/19/5
f 2/15/6 9/14/6 10/20/6 3/21/6
f 5/19/7 12/18/7 13/17/7 6/16/7
f 13/22/8 14/23/8 8/24/8
f 8/24/8 14/23/8 9/25/8
f 9/25/8 14/23/8 10/26/8
f 10/26/8 14/23/8 11/27/8
f 11/27/8 14/23/8 12/28/8
f 13/22/8 12/28/8 14/23/8
